<svg width="24" height="23" viewBox="0 0 24 23" fill="none" xmlns="http://www.w3.org/2000/svg">
<g filter="url(#filter0_d_2036_6290)">
<path d="M16.8774 8.44541C16.5204 7.11328 15.5675 5.99931 14.2282 5.34858C12.889 4.69785 11.273 4.56365 9.73597 4.97551C8.19889 5.38737 6.86656 6.31155 6.03208 7.54473C5.1976 8.77792 4.92933 10.2191 5.28627 11.5512C5.87685 13.7553 5.76217 15.5137 5.38922 16.8498C4.96415 18.3727 4.75162 19.1341 4.80903 19.287C4.87473 19.4619 4.92224 19.5099 5.09648 19.5774C5.24877 19.6364 5.88854 19.465 7.16808 19.1222L19.0331 15.9429C20.3127 15.6001 20.9525 15.4287 21.0548 15.3014C21.172 15.1558 21.1891 15.0905 21.1586 14.9061C21.1318 14.745 20.5671 14.1919 19.4375 13.0856C18.4465 12.1149 17.468 10.6495 16.8774 8.44541Z" fill="white"/>
<path d="M15.0325 17.0149C15.4613 18.6153 14.5115 20.2603 12.9111 20.6891C11.3107 21.118 9.66574 20.1682 9.23691 18.5678M11.533 4.74097C11.8372 4.19367 11.9374 3.53217 11.7626 2.87957C11.4052 1.54591 10.0344 0.754452 8.70069 1.11181C7.36703 1.46916 6.57557 2.84 6.93292 4.17367C7.10779 4.82627 7.52532 5.34904 8.06242 5.67091M16.8774 8.44541C16.5204 7.11328 15.5675 5.99931 14.2282 5.34858C12.889 4.69785 11.273 4.56365 9.73597 4.97551C8.19889 5.38737 6.86656 6.31155 6.03208 7.54473C5.1976 8.77792 4.92933 10.2191 5.28627 11.5512C5.87685 13.7553 5.76217 15.5137 5.38922 16.8498C4.96415 18.3727 4.75162 19.1341 4.80903 19.287C4.87473 19.4619 4.92224 19.5099 5.09648 19.5774C5.24877 19.6364 5.88854 19.465 7.16808 19.1222L19.0331 15.9429C20.3127 15.6001 20.9525 15.4287 21.0548 15.3014C21.172 15.1558 21.1891 15.0905 21.1586 14.9061C21.1318 14.745 20.5671 14.1919 19.4375 13.0856C18.4465 12.1149 17.468 10.6495 16.8774 8.44541Z" stroke="black" stroke-linecap="round" stroke-linejoin="round"/>
</g>
<defs>
<filter id="filter0_d_2036_6290" x="0.299805" y="0.525879" width="25.3721" height="28.7664" filterUnits="userSpaceOnUse" color-interpolation-filters="sRGB">
<feFlood flood-opacity="0" result="BackgroundImageFix"/>
<feColorMatrix in="SourceAlpha" type="matrix" values="0 0 0 0 0 0 0 0 0 0 0 0 0 0 0 0 0 0 127 0" result="hardAlpha"/>
<feOffset dy="4"/>
<feGaussianBlur stdDeviation="2"/>
<feComposite in2="hardAlpha" operator="out"/>
<feColorMatrix type="matrix" values="0 0 0 0 0 0 0 0 0 0 0 0 0 0 0 0 0 0 0.25 0"/>
<feBlend mode="normal" in2="BackgroundImageFix" result="effect1_dropShadow_2036_6290"/>
<feBlend mode="normal" in="SourceGraphic" in2="effect1_dropShadow_2036_6290" result="shape"/>
</filter>
</defs>
</svg>
