<svg width="134" height="39" viewBox="0 0 134 39" fill="none" xmlns="http://www.w3.org/2000/svg">
<g filter="url(#filter0_d_6_6274)">
<mask id="path-1-outside-1_6_6274" maskUnits="userSpaceOnUse" x="4" y="0" width="126" height="31" fill="black">
<rect fill="white" x="4" width="126" height="31"/>
<path d="M5 29.5951V26.0486L15.6639 13.0496V12.896H5.3687V8.14877H22.9386V12.0164L12.927 24.6943V24.8479H23.3073V29.5951H5Z"/>
<path d="M34.1379 30C32.7482 30 31.5097 29.7626 30.4225 29.2879C29.3353 28.8039 28.475 28.0918 27.8416 27.1517C27.2177 26.2022 26.9057 25.0201 26.9057 23.6052C26.9057 22.4137 27.1279 21.4131 27.5722 20.6033C28.0165 19.7935 28.6216 19.1419 29.3873 18.6485C30.1531 18.1552 31.0229 17.7829 31.9966 17.5315C32.9798 17.2802 34.0103 17.1034 35.088 17.001C36.3548 16.8706 37.3758 16.7496 38.151 16.6379C38.9263 16.5169 39.4888 16.3401 39.8386 16.1074C40.1883 15.8747 40.3632 15.5303 40.3632 15.0741V14.9904C40.3632 14.1061 40.0796 13.4219 39.5124 12.9379C38.9546 12.4539 38.1605 12.2118 37.13 12.2118C36.0428 12.2118 35.1778 12.4492 34.535 12.9239C33.8921 13.3893 33.4667 13.9758 33.2587 14.6832L27.6715 14.2364C27.9551 12.9332 28.5129 11.8069 29.3448 10.8575C30.1767 9.89873 31.2497 9.16338 32.5638 8.65142C33.8874 8.13016 35.4189 7.86952 37.1584 7.86952C38.3685 7.86952 39.5266 8.00915 40.6327 8.2884C41.7482 8.56765 42.7362 9.00048 43.5965 9.5869C44.4662 10.1733 45.1516 10.9273 45.6527 11.8488C46.1537 12.761 46.4042 13.8548 46.4042 15.13V29.5951H40.6752V26.6211H40.505C40.1553 27.2913 39.6873 27.8824 39.1012 28.3943C38.515 28.897 37.8107 29.2926 36.9882 29.5811C36.1657 29.8604 35.2156 30 34.1379 30ZM35.8679 25.895C36.7566 25.895 37.5413 25.7228 38.2219 25.3784C38.9026 25.0247 39.4368 24.55 39.8244 23.9543C40.212 23.3585 40.4058 22.6837 40.4058 21.9297V19.6538C40.2167 19.7748 39.9567 19.8865 39.6258 19.9889C39.3044 20.082 38.9404 20.1704 38.5339 20.2542C38.1274 20.3287 37.7209 20.3985 37.3144 20.4637C36.9079 20.5195 36.5392 20.5707 36.2083 20.6172C35.4992 20.7196 34.88 20.8825 34.3506 21.1059C33.8212 21.3293 33.4099 21.6318 33.1169 22.0135C32.8238 22.3858 32.6773 22.8512 32.6773 23.4097C32.6773 24.2195 32.9751 24.8385 33.5707 25.2667C34.1757 25.6856 34.9415 25.895 35.8679 25.895Z"/>
<path d="M57.132 1V29.5951H51.091V1H57.132Z"/>
<path d="M68.1823 30C66.7926 30 65.5542 29.7626 64.467 29.2879C63.3798 28.8039 62.5195 28.0918 61.8861 27.1517C61.2621 26.2022 60.9501 25.0201 60.9501 23.6052C60.9501 22.4137 61.1723 21.4131 61.6166 20.6033C62.061 19.7935 62.666 19.1419 63.4318 18.6485C64.1975 18.1552 65.0673 17.7829 66.041 17.5315C67.0242 17.2802 68.0547 17.1034 69.1324 17.001C70.3992 16.8706 71.4203 16.7496 72.1955 16.6379C72.9707 16.5169 73.5332 16.3401 73.883 16.1074C74.2328 15.8747 74.4077 15.5303 74.4077 15.0741V14.9904C74.4077 14.1061 74.1241 13.4219 73.5568 12.9379C72.999 12.4539 72.2049 12.2118 71.1745 12.2118C70.0873 12.2118 69.2222 12.4492 68.5794 12.9239C67.9365 13.3893 67.5111 13.9758 67.3031 14.6832L61.7159 14.2364C61.9995 12.9332 62.5573 11.8069 63.3892 10.8575C64.2212 9.89873 65.2942 9.16338 66.6083 8.65142C67.9318 8.13016 69.4633 7.86952 71.2028 7.86952C72.4129 7.86952 73.571 8.00915 74.6771 8.2884C75.7927 8.56765 76.7806 9.00048 77.6409 9.5869C78.5106 10.1733 79.196 10.9273 79.6971 11.8488C80.1981 12.761 80.4487 13.8548 80.4487 15.13V29.5951H74.7196V26.6211H74.5495C74.1997 27.2913 73.7317 27.8824 73.1456 28.3943C72.5594 28.897 71.8551 29.2926 71.0327 29.5811C70.2102 29.8604 69.2601 30 68.1823 30ZM69.9124 25.895C70.801 25.895 71.5857 25.7228 72.2664 25.3784C72.947 25.0247 73.4812 24.55 73.8688 23.9543C74.2564 23.3585 74.4502 22.6837 74.4502 21.9297V19.6538C74.2611 19.7748 74.0012 19.8865 73.6703 19.9889C73.3488 20.082 72.9849 20.1704 72.5784 20.2542C72.1718 20.3287 71.7653 20.3985 71.3588 20.4637C70.9523 20.5195 70.5836 20.5707 70.2527 20.6172C69.5437 20.7196 68.9244 20.8825 68.395 21.1059C67.8656 21.3293 67.4544 21.6318 67.1613 22.0135C66.8682 22.3858 66.7217 22.8512 66.7217 23.4097C66.7217 24.2195 67.0195 24.8385 67.6151 25.2667C68.2201 25.6856 68.9859 25.895 69.9124 25.895Z"/>
<path d="M93.1617 29.9442C91.5073 29.9442 90.0089 29.5253 88.6664 28.6875C87.3334 27.8405 86.2746 26.5978 85.4899 24.9596C84.7147 23.312 84.3271 21.2921 84.3271 18.8999C84.3271 16.4425 84.7289 14.3993 85.5325 12.7703C86.336 11.1321 87.4043 9.90804 88.7373 9.09822C90.0798 8.27909 91.5498 7.86952 93.1475 7.86952C94.3671 7.86952 95.3834 8.07431 96.1964 8.48387C97.0189 8.88413 97.6806 9.38678 98.1817 9.99182C98.6922 10.5875 99.0798 11.174 99.3445 11.7511H99.5289V1H105.556V29.5951H99.5998V26.1603H99.3445C99.0609 26.7561 98.6591 27.3471 98.1392 27.9336C97.6286 28.5107 96.9622 28.9901 96.1397 29.3717C95.3266 29.7533 94.334 29.9442 93.1617 29.9442ZM95.0761 25.2109C96.0499 25.2109 96.8723 24.9502 97.5436 24.429C98.2242 23.8984 98.7442 23.1584 99.1034 22.209C99.4721 21.2595 99.6565 20.1472 99.6565 18.8719C99.6565 17.5967 99.4769 16.489 99.1176 15.5489C98.7584 14.6087 98.2384 13.8827 97.5577 13.3707C96.8771 12.8588 96.0499 12.6028 95.0761 12.6028C94.0835 12.6028 93.2468 12.8681 92.5661 13.3987C91.8854 13.9292 91.3702 14.6646 91.0204 15.6047C90.6706 16.5449 90.4957 17.6339 90.4957 18.8719C90.4957 20.1192 90.6706 21.2223 91.0204 22.181C91.3797 23.1305 91.8949 23.8751 92.5661 24.415C93.2468 24.9456 94.0835 25.2109 95.0761 25.2109Z"/>
<path d="M116.734 30C115.344 30 114.105 29.7626 113.018 29.2879C111.931 28.8039 111.071 28.0918 110.437 27.1517C109.813 26.2022 109.501 25.0201 109.501 23.6052C109.501 22.4137 109.724 21.4131 110.168 20.6033C110.612 19.7935 111.217 19.1419 111.983 18.6485C112.749 18.1552 113.619 17.7829 114.592 17.5315C115.576 17.2802 116.606 17.1034 117.684 17.001C118.951 16.8706 119.972 16.7496 120.747 16.6379C121.522 16.5169 122.085 16.3401 122.434 16.1074C122.784 15.8747 122.959 15.5303 122.959 15.0741V14.9904C122.959 14.1061 122.675 13.4219 122.108 12.9379C121.55 12.4539 120.756 12.2118 119.726 12.2118C118.639 12.2118 117.774 12.4492 117.131 12.9239C116.488 13.3893 116.062 13.9758 115.854 14.6832L110.267 14.2364C110.551 12.9332 111.109 11.8069 111.941 10.8575C112.773 9.89873 113.846 9.16338 115.16 8.65142C116.483 8.13016 118.015 7.86952 119.754 7.86952C120.964 7.86952 122.122 8.00915 123.228 8.2884C124.344 8.56765 125.332 9.00048 126.192 9.5869C127.062 10.1733 127.747 10.9273 128.248 11.8488C128.749 12.761 129 13.8548 129 15.13V29.5951H123.271V26.6211H123.101C122.751 27.2913 122.283 27.8824 121.697 28.3943C121.111 28.897 120.406 29.2926 119.584 29.5811C118.762 29.8604 117.811 30 116.734 30ZM118.464 25.895C119.352 25.895 120.137 25.7228 120.818 25.3784C121.498 25.0247 122.033 24.55 122.42 23.9543C122.808 23.3585 123.002 22.6837 123.002 21.9297V19.6538C122.812 19.7748 122.552 19.8865 122.222 19.9889C121.9 20.082 121.536 20.1704 121.13 20.2542C120.723 20.3287 120.317 20.3985 119.91 20.4637C119.504 20.5195 119.135 20.5707 118.804 20.6172C118.095 20.7196 117.476 20.8825 116.946 21.1059C116.417 21.3293 116.006 21.6318 115.713 22.0135C115.42 22.3858 115.273 22.8512 115.273 23.4097C115.273 24.2195 115.571 24.8385 116.166 25.2667C116.771 25.6856 117.537 25.895 118.464 25.895Z"/>
</mask>
<path d="M5 29.5951V26.0486L15.6639 13.0496V12.896H5.3687V8.14877H22.9386V12.0164L12.927 24.6943V24.8479H23.3073V29.5951H5Z" fill="#1D1E25"/>
<path d="M34.1379 30C32.7482 30 31.5097 29.7626 30.4225 29.2879C29.3353 28.8039 28.475 28.0918 27.8416 27.1517C27.2177 26.2022 26.9057 25.0201 26.9057 23.6052C26.9057 22.4137 27.1279 21.4131 27.5722 20.6033C28.0165 19.7935 28.6216 19.1419 29.3873 18.6485C30.1531 18.1552 31.0229 17.7829 31.9966 17.5315C32.9798 17.2802 34.0103 17.1034 35.088 17.001C36.3548 16.8706 37.3758 16.7496 38.151 16.6379C38.9263 16.5169 39.4888 16.3401 39.8386 16.1074C40.1883 15.8747 40.3632 15.5303 40.3632 15.0741V14.9904C40.3632 14.1061 40.0796 13.4219 39.5124 12.9379C38.9546 12.4539 38.1605 12.2118 37.13 12.2118C36.0428 12.2118 35.1778 12.4492 34.535 12.9239C33.8921 13.3893 33.4667 13.9758 33.2587 14.6832L27.6715 14.2364C27.9551 12.9332 28.5129 11.8069 29.3448 10.8575C30.1767 9.89873 31.2497 9.16338 32.5638 8.65142C33.8874 8.13016 35.4189 7.86952 37.1584 7.86952C38.3685 7.86952 39.5266 8.00915 40.6327 8.2884C41.7482 8.56765 42.7362 9.00048 43.5965 9.5869C44.4662 10.1733 45.1516 10.9273 45.6527 11.8488C46.1537 12.761 46.4042 13.8548 46.4042 15.13V29.5951H40.6752V26.6211H40.505C40.1553 27.2913 39.6873 27.8824 39.1012 28.3943C38.515 28.897 37.8107 29.2926 36.9882 29.5811C36.1657 29.8604 35.2156 30 34.1379 30ZM35.8679 25.895C36.7566 25.895 37.5413 25.7228 38.2219 25.3784C38.9026 25.0247 39.4368 24.55 39.8244 23.9543C40.212 23.3585 40.4058 22.6837 40.4058 21.9297V19.6538C40.2167 19.7748 39.9567 19.8865 39.6258 19.9889C39.3044 20.082 38.9404 20.1704 38.5339 20.2542C38.1274 20.3287 37.7209 20.3985 37.3144 20.4637C36.9079 20.5195 36.5392 20.5707 36.2083 20.6172C35.4992 20.7196 34.88 20.8825 34.3506 21.1059C33.8212 21.3293 33.4099 21.6318 33.1169 22.0135C32.8238 22.3858 32.6773 22.8512 32.6773 23.4097C32.6773 24.2195 32.9751 24.8385 33.5707 25.2667C34.1757 25.6856 34.9415 25.895 35.8679 25.895Z" fill="#1D1E25"/>
<path d="M57.132 1V29.5951H51.091V1H57.132Z" fill="#1D1E25"/>
<path d="M68.1823 30C66.7926 30 65.5542 29.7626 64.467 29.2879C63.3798 28.8039 62.5195 28.0918 61.8861 27.1517C61.2621 26.2022 60.9501 25.0201 60.9501 23.6052C60.9501 22.4137 61.1723 21.4131 61.6166 20.6033C62.061 19.7935 62.666 19.1419 63.4318 18.6485C64.1975 18.1552 65.0673 17.7829 66.041 17.5315C67.0242 17.2802 68.0547 17.1034 69.1324 17.001C70.3992 16.8706 71.4203 16.7496 72.1955 16.6379C72.9707 16.5169 73.5332 16.3401 73.883 16.1074C74.2328 15.8747 74.4077 15.5303 74.4077 15.0741V14.9904C74.4077 14.1061 74.1241 13.4219 73.5568 12.9379C72.999 12.4539 72.2049 12.2118 71.1745 12.2118C70.0873 12.2118 69.2222 12.4492 68.5794 12.9239C67.9365 13.3893 67.5111 13.9758 67.3031 14.6832L61.7159 14.2364C61.9995 12.9332 62.5573 11.8069 63.3892 10.8575C64.2212 9.89873 65.2942 9.16338 66.6083 8.65142C67.9318 8.13016 69.4633 7.86952 71.2028 7.86952C72.4129 7.86952 73.571 8.00915 74.6771 8.2884C75.7927 8.56765 76.7806 9.00048 77.6409 9.5869C78.5106 10.1733 79.196 10.9273 79.6971 11.8488C80.1981 12.761 80.4487 13.8548 80.4487 15.13V29.5951H74.7196V26.6211H74.5495C74.1997 27.2913 73.7317 27.8824 73.1456 28.3943C72.5594 28.897 71.8551 29.2926 71.0327 29.5811C70.2102 29.8604 69.2601 30 68.1823 30ZM69.9124 25.895C70.801 25.895 71.5857 25.7228 72.2664 25.3784C72.947 25.0247 73.4812 24.55 73.8688 23.9543C74.2564 23.3585 74.4502 22.6837 74.4502 21.9297V19.6538C74.2611 19.7748 74.0012 19.8865 73.6703 19.9889C73.3488 20.082 72.9849 20.1704 72.5784 20.2542C72.1718 20.3287 71.7653 20.3985 71.3588 20.4637C70.9523 20.5195 70.5836 20.5707 70.2527 20.6172C69.5437 20.7196 68.9244 20.8825 68.395 21.1059C67.8656 21.3293 67.4544 21.6318 67.1613 22.0135C66.8682 22.3858 66.7217 22.8512 66.7217 23.4097C66.7217 24.2195 67.0195 24.8385 67.6151 25.2667C68.2201 25.6856 68.9859 25.895 69.9124 25.895Z" fill="#1D1E25"/>
<path d="M93.1617 29.9442C91.5073 29.9442 90.0089 29.5253 88.6664 28.6875C87.3334 27.8405 86.2746 26.5978 85.4899 24.9596C84.7147 23.312 84.3271 21.2921 84.3271 18.8999C84.3271 16.4425 84.7289 14.3993 85.5325 12.7703C86.336 11.1321 87.4043 9.90804 88.7373 9.09822C90.0798 8.27909 91.5498 7.86952 93.1475 7.86952C94.3671 7.86952 95.3834 8.07431 96.1964 8.48387C97.0189 8.88413 97.6806 9.38678 98.1817 9.99182C98.6922 10.5875 99.0798 11.174 99.3445 11.7511H99.5289V1H105.556V29.5951H99.5998V26.1603H99.3445C99.0609 26.7561 98.6591 27.3471 98.1392 27.9336C97.6286 28.5107 96.9622 28.9901 96.1397 29.3717C95.3266 29.7533 94.334 29.9442 93.1617 29.9442ZM95.0761 25.2109C96.0499 25.2109 96.8723 24.9502 97.5436 24.429C98.2242 23.8984 98.7442 23.1584 99.1034 22.209C99.4721 21.2595 99.6565 20.1472 99.6565 18.8719C99.6565 17.5967 99.4769 16.489 99.1176 15.5489C98.7584 14.6087 98.2384 13.8827 97.5577 13.3707C96.8771 12.8588 96.0499 12.6028 95.0761 12.6028C94.0835 12.6028 93.2468 12.8681 92.5661 13.3987C91.8854 13.9292 91.3702 14.6646 91.0204 15.6047C90.6706 16.5449 90.4957 17.6339 90.4957 18.8719C90.4957 20.1192 90.6706 21.2223 91.0204 22.181C91.3797 23.1305 91.8949 23.8751 92.5661 24.415C93.2468 24.9456 94.0835 25.2109 95.0761 25.2109Z" fill="#1D1E25"/>
<path d="M116.734 30C115.344 30 114.105 29.7626 113.018 29.2879C111.931 28.8039 111.071 28.0918 110.437 27.1517C109.813 26.2022 109.501 25.0201 109.501 23.6052C109.501 22.4137 109.724 21.4131 110.168 20.6033C110.612 19.7935 111.217 19.1419 111.983 18.6485C112.749 18.1552 113.619 17.7829 114.592 17.5315C115.576 17.2802 116.606 17.1034 117.684 17.001C118.951 16.8706 119.972 16.7496 120.747 16.6379C121.522 16.5169 122.085 16.3401 122.434 16.1074C122.784 15.8747 122.959 15.5303 122.959 15.0741V14.9904C122.959 14.1061 122.675 13.4219 122.108 12.9379C121.55 12.4539 120.756 12.2118 119.726 12.2118C118.639 12.2118 117.774 12.4492 117.131 12.9239C116.488 13.3893 116.062 13.9758 115.854 14.6832L110.267 14.2364C110.551 12.9332 111.109 11.8069 111.941 10.8575C112.773 9.89873 113.846 9.16338 115.16 8.65142C116.483 8.13016 118.015 7.86952 119.754 7.86952C120.964 7.86952 122.122 8.00915 123.228 8.2884C124.344 8.56765 125.332 9.00048 126.192 9.5869C127.062 10.1733 127.747 10.9273 128.248 11.8488C128.749 12.761 129 13.8548 129 15.13V29.5951H123.271V26.6211H123.101C122.751 27.2913 122.283 27.8824 121.697 28.3943C121.111 28.897 120.406 29.2926 119.584 29.5811C118.762 29.8604 117.811 30 116.734 30ZM118.464 25.895C119.352 25.895 120.137 25.7228 120.818 25.3784C121.498 25.0247 122.033 24.55 122.42 23.9543C122.808 23.3585 123.002 22.6837 123.002 21.9297V19.6538C122.812 19.7748 122.552 19.8865 122.222 19.9889C121.9 20.082 121.536 20.1704 121.13 20.2542C120.723 20.3287 120.317 20.3985 119.91 20.4637C119.504 20.5195 119.135 20.5707 118.804 20.6172C118.095 20.7196 117.476 20.8825 116.946 21.1059C116.417 21.3293 116.006 21.6318 115.713 22.0135C115.42 22.3858 115.273 22.8512 115.273 23.4097C115.273 24.2195 115.571 24.8385 116.166 25.2667C116.771 25.6856 117.537 25.895 118.464 25.895Z" fill="#1D1E25"/>
<path d="M5 29.5951V26.0486L15.6639 13.0496V12.896H5.3687V8.14877H22.9386V12.0164L12.927 24.6943V24.8479H23.3073V29.5951H5Z" stroke="black" stroke-width="2" mask="url(#path-1-outside-1_6_6274)"/>
<path d="M34.1379 30C32.7482 30 31.5097 29.7626 30.4225 29.2879C29.3353 28.8039 28.475 28.0918 27.8416 27.1517C27.2177 26.2022 26.9057 25.0201 26.9057 23.6052C26.9057 22.4137 27.1279 21.4131 27.5722 20.6033C28.0165 19.7935 28.6216 19.1419 29.3873 18.6485C30.1531 18.1552 31.0229 17.7829 31.9966 17.5315C32.9798 17.2802 34.0103 17.1034 35.088 17.001C36.3548 16.8706 37.3758 16.7496 38.151 16.6379C38.9263 16.5169 39.4888 16.3401 39.8386 16.1074C40.1883 15.8747 40.3632 15.5303 40.3632 15.0741V14.9904C40.3632 14.1061 40.0796 13.4219 39.5124 12.9379C38.9546 12.4539 38.1605 12.2118 37.13 12.2118C36.0428 12.2118 35.1778 12.4492 34.535 12.9239C33.8921 13.3893 33.4667 13.9758 33.2587 14.6832L27.6715 14.2364C27.9551 12.9332 28.5129 11.8069 29.3448 10.8575C30.1767 9.89873 31.2497 9.16338 32.5638 8.65142C33.8874 8.13016 35.4189 7.86952 37.1584 7.86952C38.3685 7.86952 39.5266 8.00915 40.6327 8.2884C41.7482 8.56765 42.7362 9.00048 43.5965 9.5869C44.4662 10.1733 45.1516 10.9273 45.6527 11.8488C46.1537 12.761 46.4042 13.8548 46.4042 15.13V29.5951H40.6752V26.6211H40.505C40.1553 27.2913 39.6873 27.8824 39.1012 28.3943C38.515 28.897 37.8107 29.2926 36.9882 29.5811C36.1657 29.8604 35.2156 30 34.1379 30ZM35.8679 25.895C36.7566 25.895 37.5413 25.7228 38.2219 25.3784C38.9026 25.0247 39.4368 24.55 39.8244 23.9543C40.212 23.3585 40.4058 22.6837 40.4058 21.9297V19.6538C40.2167 19.7748 39.9567 19.8865 39.6258 19.9889C39.3044 20.082 38.9404 20.1704 38.5339 20.2542C38.1274 20.3287 37.7209 20.3985 37.3144 20.4637C36.9079 20.5195 36.5392 20.5707 36.2083 20.6172C35.4992 20.7196 34.88 20.8825 34.3506 21.1059C33.8212 21.3293 33.4099 21.6318 33.1169 22.0135C32.8238 22.3858 32.6773 22.8512 32.6773 23.4097C32.6773 24.2195 32.9751 24.8385 33.5707 25.2667C34.1757 25.6856 34.9415 25.895 35.8679 25.895Z" stroke="black" stroke-width="2" mask="url(#path-1-outside-1_6_6274)"/>
<path d="M57.132 1V29.5951H51.091V1H57.132Z" stroke="black" stroke-width="2" mask="url(#path-1-outside-1_6_6274)"/>
<path d="M68.1823 30C66.7926 30 65.5542 29.7626 64.467 29.2879C63.3798 28.8039 62.5195 28.0918 61.8861 27.1517C61.2621 26.2022 60.9501 25.0201 60.9501 23.6052C60.9501 22.4137 61.1723 21.4131 61.6166 20.6033C62.061 19.7935 62.666 19.1419 63.4318 18.6485C64.1975 18.1552 65.0673 17.7829 66.041 17.5315C67.0242 17.2802 68.0547 17.1034 69.1324 17.001C70.3992 16.8706 71.4203 16.7496 72.1955 16.6379C72.9707 16.5169 73.5332 16.3401 73.883 16.1074C74.2328 15.8747 74.4077 15.5303 74.4077 15.0741V14.9904C74.4077 14.1061 74.1241 13.4219 73.5568 12.9379C72.999 12.4539 72.2049 12.2118 71.1745 12.2118C70.0873 12.2118 69.2222 12.4492 68.5794 12.9239C67.9365 13.3893 67.5111 13.9758 67.3031 14.6832L61.7159 14.2364C61.9995 12.9332 62.5573 11.8069 63.3892 10.8575C64.2212 9.89873 65.2942 9.16338 66.6083 8.65142C67.9318 8.13016 69.4633 7.86952 71.2028 7.86952C72.4129 7.86952 73.571 8.00915 74.6771 8.2884C75.7927 8.56765 76.7806 9.00048 77.6409 9.5869C78.5106 10.1733 79.196 10.9273 79.6971 11.8488C80.1981 12.761 80.4487 13.8548 80.4487 15.13V29.5951H74.7196V26.6211H74.5495C74.1997 27.2913 73.7317 27.8824 73.1456 28.3943C72.5594 28.897 71.8551 29.2926 71.0327 29.5811C70.2102 29.8604 69.2601 30 68.1823 30ZM69.9124 25.895C70.801 25.895 71.5857 25.7228 72.2664 25.3784C72.947 25.0247 73.4812 24.55 73.8688 23.9543C74.2564 23.3585 74.4502 22.6837 74.4502 21.9297V19.6538C74.2611 19.7748 74.0012 19.8865 73.6703 19.9889C73.3488 20.082 72.9849 20.1704 72.5784 20.2542C72.1718 20.3287 71.7653 20.3985 71.3588 20.4637C70.9523 20.5195 70.5836 20.5707 70.2527 20.6172C69.5437 20.7196 68.9244 20.8825 68.395 21.1059C67.8656 21.3293 67.4544 21.6318 67.1613 22.0135C66.8682 22.3858 66.7217 22.8512 66.7217 23.4097C66.7217 24.2195 67.0195 24.8385 67.6151 25.2667C68.2201 25.6856 68.9859 25.895 69.9124 25.895Z" stroke="black" stroke-width="2" mask="url(#path-1-outside-1_6_6274)"/>
<path d="M93.1617 29.9442C91.5073 29.9442 90.0089 29.5253 88.6664 28.6875C87.3334 27.8405 86.2746 26.5978 85.4899 24.9596C84.7147 23.312 84.3271 21.2921 84.3271 18.8999C84.3271 16.4425 84.7289 14.3993 85.5325 12.7703C86.336 11.1321 87.4043 9.90804 88.7373 9.09822C90.0798 8.27909 91.5498 7.86952 93.1475 7.86952C94.3671 7.86952 95.3834 8.07431 96.1964 8.48387C97.0189 8.88413 97.6806 9.38678 98.1817 9.99182C98.6922 10.5875 99.0798 11.174 99.3445 11.7511H99.5289V1H105.556V29.5951H99.5998V26.1603H99.3445C99.0609 26.7561 98.6591 27.3471 98.1392 27.9336C97.6286 28.5107 96.9622 28.9901 96.1397 29.3717C95.3266 29.7533 94.334 29.9442 93.1617 29.9442ZM95.0761 25.2109C96.0499 25.2109 96.8723 24.9502 97.5436 24.429C98.2242 23.8984 98.7442 23.1584 99.1034 22.209C99.4721 21.2595 99.6565 20.1472 99.6565 18.8719C99.6565 17.5967 99.4769 16.489 99.1176 15.5489C98.7584 14.6087 98.2384 13.8827 97.5577 13.3707C96.8771 12.8588 96.0499 12.6028 95.0761 12.6028C94.0835 12.6028 93.2468 12.8681 92.5661 13.3987C91.8854 13.9292 91.3702 14.6646 91.0204 15.6047C90.6706 16.5449 90.4957 17.6339 90.4957 18.8719C90.4957 20.1192 90.6706 21.2223 91.0204 22.181C91.3797 23.1305 91.8949 23.8751 92.5661 24.415C93.2468 24.9456 94.0835 25.2109 95.0761 25.2109Z" stroke="black" stroke-width="2" mask="url(#path-1-outside-1_6_6274)"/>
<path d="M116.734 30C115.344 30 114.105 29.7626 113.018 29.2879C111.931 28.8039 111.071 28.0918 110.437 27.1517C109.813 26.2022 109.501 25.0201 109.501 23.6052C109.501 22.4137 109.724 21.4131 110.168 20.6033C110.612 19.7935 111.217 19.1419 111.983 18.6485C112.749 18.1552 113.619 17.7829 114.592 17.5315C115.576 17.2802 116.606 17.1034 117.684 17.001C118.951 16.8706 119.972 16.7496 120.747 16.6379C121.522 16.5169 122.085 16.3401 122.434 16.1074C122.784 15.8747 122.959 15.5303 122.959 15.0741V14.9904C122.959 14.1061 122.675 13.4219 122.108 12.9379C121.55 12.4539 120.756 12.2118 119.726 12.2118C118.639 12.2118 117.774 12.4492 117.131 12.9239C116.488 13.3893 116.062 13.9758 115.854 14.6832L110.267 14.2364C110.551 12.9332 111.109 11.8069 111.941 10.8575C112.773 9.89873 113.846 9.16338 115.16 8.65142C116.483 8.13016 118.015 7.86952 119.754 7.86952C120.964 7.86952 122.122 8.00915 123.228 8.2884C124.344 8.56765 125.332 9.00048 126.192 9.5869C127.062 10.1733 127.747 10.9273 128.248 11.8488C128.749 12.761 129 13.8548 129 15.13V29.5951H123.271V26.6211H123.101C122.751 27.2913 122.283 27.8824 121.697 28.3943C121.111 28.897 120.406 29.2926 119.584 29.5811C118.762 29.8604 117.811 30 116.734 30ZM118.464 25.895C119.352 25.895 120.137 25.7228 120.818 25.3784C121.498 25.0247 122.033 24.55 122.42 23.9543C122.808 23.3585 123.002 22.6837 123.002 21.9297V19.6538C122.812 19.7748 122.552 19.8865 122.222 19.9889C121.9 20.082 121.536 20.1704 121.13 20.2542C120.723 20.3287 120.317 20.3985 119.91 20.4637C119.504 20.5195 119.135 20.5707 118.804 20.6172C118.095 20.7196 117.476 20.8825 116.946 21.1059C116.417 21.3293 116.006 21.6318 115.713 22.0135C115.42 22.3858 115.273 22.8512 115.273 23.4097C115.273 24.2195 115.571 24.8385 116.166 25.2667C116.771 25.6856 117.537 25.895 118.464 25.895Z" stroke="black" stroke-width="2" mask="url(#path-1-outside-1_6_6274)"/>
</g>
<defs>
<filter id="filter0_d_6_6274" x="0" y="0" width="134" height="39" filterUnits="userSpaceOnUse" color-interpolation-filters="sRGB">
<feFlood flood-opacity="0" result="BackgroundImageFix"/>
<feColorMatrix in="SourceAlpha" type="matrix" values="0 0 0 0 0 0 0 0 0 0 0 0 0 0 0 0 0 0 127 0" result="hardAlpha"/>
<feOffset dy="4"/>
<feGaussianBlur stdDeviation="2"/>
<feComposite in2="hardAlpha" operator="out"/>
<feColorMatrix type="matrix" values="0 0 0 0 0 0 0 0 0 0 0 0 0 0 0 0 0 0 0.25 0"/>
<feBlend mode="normal" in2="BackgroundImageFix" result="effect1_dropShadow_6_6274"/>
<feBlend mode="normal" in="SourceGraphic" in2="effect1_dropShadow_6_6274" result="shape"/>
</filter>
</defs>
</svg>
